<svg xmlns="http://www.w3.org/2000/svg" fill="#000" viewBox="0 0 24 24">
  <path fill-rule="evenodd" d="M7.232 12.44V8.537c0-.407-.154-.798-.429-1.087A1.433 1.433 0 0 0 5.768 7H3.563c-.388 0-.76.163-1.035.451-.275.289-.43.68-.43 1.087v3.901a1.467 1.467 0 0 0-.845.625 1.594 1.594 0 0 0 .244 2.015c.268.247.612.383.969.382h4.4c.356 0 .7-.135.968-.382a1.594 1.594 0 0 0 .244-2.015c-.2-.31-.5-.532-.846-.625Zm-4.4-3.902c0-.203.077-.398.214-.543a.717.717 0 0 1 .517-.226h2.205c.194 0 .38.082.517.226.137.145.214.34.214.543v3.847H2.832V8.538Zm4.034 6.154h-4.4a.716.716 0 0 1-.519-.225.789.789 0 0 1-.215-.544c0-.204.077-.4.215-.544a.716.716 0 0 1 .519-.225h4.4c.194 0 .38.08.518.225.138.144.215.34.215.544 0 .204-.077.4-.215.544a.716.716 0 0 1-.518.225Zm7.701-2.253v-3.9c0-.408-.154-.8-.429-1.088A1.433 1.433 0 0 0 13.103 7h-2.205c-.388 0-.76.163-1.035.451-.275.289-.43.68-.43 1.087v3.901a1.467 1.467 0 0 0-.846.625 1.594 1.594 0 0 0 .245 2.015c.268.247.612.383.969.382h4.4c.356 0 .7-.135.968-.382a1.594 1.594 0 0 0 .245-2.015c-.2-.31-.502-.532-.847-.625Zm-4.4-3.9c0-.204.077-.4.214-.544a.716.716 0 0 1 .517-.226h2.205c.194 0 .38.082.517.226.137.145.214.34.214.543v3.847h-3.667V8.538Zm4.034 6.153H9.8a.716.716 0 0 1-.519-.225.789.789 0 0 1-.215-.544c0-.204.077-.4.215-.544a.716.716 0 0 1 .519-.225h4.4c.194 0 .38.08.518.225.138.144.215.34.215.544 0 .204-.077.4-.215.544a.716.716 0 0 1-.518.225Zm7.7-6.154v3.901c.345.093.645.316.846.625a1.594 1.594 0 0 1-.245 2.015 1.425 1.425 0 0 1-.968.382h-4.4c-.357 0-.701-.135-.97-.382a1.594 1.594 0 0 1-.244-2.015c.2-.31.502-.532.847-.625v-3.9c0-.408.154-.8.429-1.088.274-.288.647-.45 1.035-.451h2.205c.388 0 .76.163 1.035.451.275.289.43.68.43 1.087Zm-4.187-.543a.789.789 0 0 0-.214.543v3.847h3.667V8.538a.789.789 0 0 0-.214-.543.717.717 0 0 0-.517-.226H18.23a.717.717 0 0 0-.517.226Zm-.58 6.697h4.4a.716.716 0 0 0 .518-.225.789.789 0 0 0 .215-.544c0-.204-.077-.4-.215-.544a.716.716 0 0 0-.518-.225h-4.4a.716.716 0 0 0-.519.225.789.789 0 0 0-.215.544c0 .204.078.4.215.544a.716.716 0 0 0 .519.225ZM5.399 8.538H3.933v.77h1.466v-.77Zm5.869 0h1.466v.77h-1.466v-.77Zm8.8 0h-1.466v.77h1.466v-.77ZM1 16.231h22V17H1v-.77Z" clip-rule="evenodd"/>
</svg>